# xmcd CD database file
#
# Track frame offsets:
#	150
#	25044
#	73730
#	109292
#	133025
#	182380
#	204295
#	244842
#
# Disc length: 3722 seconds
#
# Revision: 0
# Processed by: cddbd v1.5.2PL0 Copyright (c) Steve Scherf et al.
# Submitted via: CDex 1.51
#
DISCID=690e8808
DTITLE=Claes Crona Trio - Three Tenors
DYEAR=2007
DGENRE=Jazz
TTITLE0=Four brothers
TTITLE1=Moanin'
TTITLE2=Firm roots
TTITLE3=Mood indigo
TTITLE4=Good bait
TTITLE5=Just friends
TTITLE6=Blue train
TTITLE7=Lester leaps in
EXTD=YEAR: 2007
EXTT0=
EXTT1=
EXTT2=
EXTT3=
EXTT4=
EXTT5=
EXTT6=
EXTT7=
PLAYORDER=
